<svg width="111" height="108" viewBox="0 0 111 108" fill="none" xmlns="http://www.w3.org/2000/svg">
  <path d="M9.5 55L7.2752 56.1021C1.57493 59.3594 1.57493 64.6405 7.2752 67.8978L45.1787 89.5569C50.879 92.8142 60.121 92.8142 65.8213 89.5569L103.725 67.8978C109.425 64.6405 109.425 59.3593 103.725 56.1021L101.5 55" stroke="#444444" stroke-width="3"/>
  <path d="M9.5 69L7.2752 70.1021C1.57493 73.3594 1.57493 78.6405 7.2752 81.8978L45.1787 103.557C50.879 106.814 60.121 106.814 65.8213 103.557L103.725 81.8978C109.425 78.6405 109.425 73.3593 103.725 70.1021L101.5 69" stroke="#444444" stroke-width="3"/>
  <path d="M102.612 40.8577L103.725 41.5039C109.425 44.8155 109.425 50.1846 103.725 53.4962L65.8213 75.5164C60.121 78.828 50.879 78.828 45.1787 75.5164L7.2752 53.4962C1.57493 50.1846 1.57493 44.8155 7.2752 41.5039L8.3876 40.8577" stroke="#444444" stroke-width="3"/>
  <path d="M104.469 25.7998L66.5655 4.14061C63.4349 2.3517 59.4267 1.5 55.5 1.5C51.5733 1.5 47.5651 2.3517 44.4345 4.14061L6.53099 25.7998C3.41107 27.5826 1.5 30.1328 1.5 33C1.5 35.8672 3.41107 38.4174 6.531 40.2002L8.75579 41.4715L44.4345 61.8594C47.5651 63.6483 51.5733 64.5 55.5 64.5C59.4267 64.5 63.4349 63.6483 66.5655 61.8594L102.244 41.4715L104.469 40.2002C107.589 38.4174 109.5 35.8672 109.5 33C109.5 30.1328 107.589 27.5826 104.469 25.7998Z" stroke="#444444" stroke-width="3"/>
</svg>
