<svg width="132" height="150" viewBox="0 0 132 150" fill="none" xmlns="http://www.w3.org/2000/svg">
<path fill-rule="evenodd" clip-rule="evenodd" d="M127.103 37.6726L67.5573 3.31814C66.4944 2.70491 65.1849 2.70491 64.122 3.31814L4.57647 37.6726C3.51359 38.2858 2.85882 39.4191 2.85882 40.6455V109.354C2.85882 110.581 3.51359 111.714 4.57647 112.327L64.122 146.682C65.1849 147.295 66.4944 147.295 67.5573 146.682L127.103 112.327C128.166 111.714 128.82 110.581 128.82 109.354V40.6455C128.82 39.4191 128.166 38.2858 127.103 37.6726ZM67.9867 2.5749C66.6581 1.80837 65.0212 1.80837 63.6926 2.5749L4.14706 36.9293C2.81845 37.6959 2 39.1125 2 40.6455V109.354C2 110.888 2.81845 112.304 4.14706 113.071L63.6926 147.425C65.0212 148.192 66.6581 148.192 67.9867 147.425L127.532 113.071C128.861 112.304 129.679 110.888 129.679 109.354V40.6455C129.679 39.1125 128.861 37.6959 127.532 36.9293L67.9867 2.5749Z" fill="#444444" stroke="#444444" stroke-width="3"/>
<path d="M95.3911 95L82.0867 79.2313L93.656 65.3373L116.88 95H121L94.9459 61.722L79.9463 43L55.8675 74.1464L43.6994 60.2489L15 95H19.2099L43.7704 65.2606L53.8455 76.7677L39.8299 94.9969L39.8339 95H43.9192L57.2042 77.7212L57.2136 77.709L57.2146 77.7077L79.9911 48.2459L91.5989 62.7345L78.7352 78.183L65.1223 95H69.2977L79.9942 81.7859L91.1431 95H95.3911Z" fill="#444444" stroke="#444444"/>
</svg>
